<svg width="64" height="64" viewBox="0 0 64 64" fill="none" xmlns="http://www.w3.org/2000/svg">
<mask id="mask0_863_10116" style="mask-type:alpha" maskUnits="userSpaceOnUse" x="10" y="5" width="45" height="54">
<path d="M32.2178 7.63226C32.0639 7.85097 31.8901 8.09158 31.6953 8.35004C30.7748 9.57161 29.3903 11.204 27.5244 12.8618C23.9694 16.0203 18.6392 19.2909 11.4414 19.9496C11.7255 33.4096 17.3941 42.6586 23.0615 48.5893C25.9743 51.6373 28.8876 53.8088 31.0693 55.2162C32.1592 55.9193 33.0646 56.4301 33.6924 56.7631C33.859 56.8515 34.0081 56.9242 34.1338 56.9877C34.2287 56.9296 34.3384 56.8658 34.458 56.7895C34.9961 56.4464 35.7742 55.9175 36.7129 55.1879C38.5907 53.7284 41.1061 51.4681 43.624 48.2807C48.6017 41.9795 53.615 32.0256 53.7109 17.3901L48.9912 12.0639C43.4342 13.8034 39.0253 12.4974 35.9902 10.685C34.42 9.74724 33.2236 8.67976 32.4189 7.84711C32.3485 7.77417 32.2824 7.70154 32.2178 7.63226Z" fill="white" stroke="black" stroke-width="2.28571"/>
</mask>
<g mask="url(#mask0_863_10116)">
<path d="M32.2178 7.63226C32.0639 7.85097 31.8901 8.09158 31.6953 8.35004C30.7748 9.57161 29.3903 11.204 27.5244 12.8618C23.9694 16.0203 18.6392 19.2909 11.4414 19.9496C11.7255 33.4096 17.3941 42.6586 23.0615 48.5893C25.9743 51.6373 28.8876 53.8088 31.0693 55.2162C32.1592 55.9193 33.0646 56.4301 33.6924 56.7631C33.859 56.8515 34.0081 56.9242 34.1338 56.9877C34.2287 56.9296 34.3384 56.8658 34.458 56.7895C34.9961 56.4464 35.7742 55.9175 36.7129 55.1879C38.5907 53.7284 41.1061 51.4681 43.624 48.2807C48.6017 41.9795 53.615 32.0256 53.7109 17.3901L48.9912 12.0639C43.4342 13.8034 39.0253 12.4974 35.9902 10.685C34.42 9.74724 33.2236 8.67976 32.4189 7.84711C32.3485 7.77417 32.2824 7.70154 32.2178 7.63226Z" fill="white" stroke="black" stroke-width="2.28571"/>
<g filter="url(#filter0_g_863_10116)">
<path d="M32.2178 7.63226C32.0639 7.85097 31.8901 8.09158 31.6953 8.35004C30.7748 9.57161 29.3903 11.204 27.5244 12.8618C23.9694 16.0203 18.6392 19.2909 11.4414 19.9496C11.7255 33.4096 17.3941 42.6586 23.0615 48.5893C25.9743 51.6373 28.8876 53.8088 31.0693 55.2162C32.1592 55.9193 33.0646 56.4301 33.6924 56.7631C33.859 56.8515 34.0081 56.9242 34.1338 56.9877C34.2287 56.9296 34.3384 56.8658 34.458 56.7895C34.9961 56.4464 35.7742 55.9175 36.7129 55.1879C38.5907 53.7284 41.1061 51.4681 43.624 48.2807C48.6017 41.9795 53.615 32.0256 53.7109 17.3901L48.9912 12.0639C43.4342 13.8034 39.0253 12.4974 35.9902 10.685C34.42 9.74724 33.2236 8.67976 32.4189 7.84711C32.3485 7.77417 32.2824 7.70154 32.2178 7.63226Z" stroke="black" stroke-width="2.28571"/>
</g>
<g filter="url(#filter1_g_863_10116)">
<path d="M32.2178 7.63226C32.0639 7.85097 31.8901 8.09158 31.6953 8.35004C30.7748 9.57161 29.3903 11.204 27.5244 12.8618C23.9694 16.0203 18.6392 19.2909 11.4414 19.9496C11.7256 33.391 17.3902 42.3535 23.043 47.9985C25.9502 50.9017 28.8582 52.9301 31.0361 54.2309C32.1243 54.8808 33.028 55.3476 33.6543 55.6498C33.8397 55.7393 34.0025 55.8105 34.1367 55.8715C34.24 55.8144 34.3619 55.7501 34.4971 55.6713C35.0331 55.3592 35.809 54.8755 36.7451 54.1996C38.6179 52.8475 41.1274 50.7312 43.6396 47.6899C48.6035 41.6805 53.615 32.018 53.7109 17.3901L48.9912 12.0639C43.4342 13.8034 39.0253 12.4974 35.9902 10.685C34.42 9.74724 33.2236 8.67976 32.4189 7.84711C32.3485 7.77417 32.2824 7.70154 32.2178 7.63226Z" stroke="black" stroke-width="2.28571"/>
</g>
<g filter="url(#filter2_g_863_10116)">
<path d="M32 4.57144H64V66.2857H32V4.57144Z" fill="black"/>
</g>
</g>
<path d="M35.5322 14.9028C35.3866 15.1005 35.2228 15.3188 35.0391 15.5532C34.1788 16.6509 32.8963 18.1225 31.2002 19.6323C27.9915 22.4885 23.257 25.5151 17.0664 26.3452C17.286 40.0332 21.9258 47.504 26.416 51.5688C28.7329 53.6662 31.0462 54.8901 32.7715 55.5884C33.6338 55.9374 34.3474 56.1543 34.8379 56.2827C34.9784 56.3195 35.1013 56.3454 35.2031 56.3687C35.3167 56.3037 35.4595 56.224 35.625 56.1226C36.1271 55.8149 36.8552 55.3356 37.7344 54.6646C39.4931 53.322 41.8531 51.2112 44.2178 48.1597C48.7662 42.2901 53.3699 32.8912 53.6953 18.6636C47.8725 20.4817 43.221 19.4898 39.9482 17.9165C38.1812 17.067 36.8306 16.0561 35.9189 15.2554C35.7797 15.133 35.6514 15.0145 35.5322 14.9028Z" fill="white" stroke="black" stroke-width="2.28571"/>
<defs>
<filter id="filter0_g_863_10116" x="6.44885" y="1.87701" width="52.2459" height="60.246" filterUnits="userSpaceOnUse" color-interpolation-filters="sRGB">
<feFlood flood-opacity="0" result="BackgroundImageFix"/>
<feBlend mode="normal" in="SourceGraphic" in2="BackgroundImageFix" result="shape"/>
<feTurbulence type="fractalNoise" baseFrequency="0.99900001287460327 0.99900001287460327" numOctaves="3" seed="6254" />
<feDisplacementMap in="shape" scale="7.6745643615722656" xChannelSelector="R" yChannelSelector="G" result="displacedImage" width="100%" height="100%" />
<feMerge result="effect1_texture_863_10116">
<feMergeNode in="displacedImage"/>
</feMerge>
</filter>
<filter id="filter1_g_863_10116" x="2.61157" y="-1.96027" width="59.9204" height="66.7777" filterUnits="userSpaceOnUse" color-interpolation-filters="sRGB">
<feFlood flood-opacity="0" result="BackgroundImageFix"/>
<feBlend mode="normal" in="SourceGraphic" in2="BackgroundImageFix" result="shape"/>
<feTurbulence type="fractalNoise" baseFrequency="0.99900001287460327 0.99900001287460327" numOctaves="3" seed="6254" />
<feDisplacementMap in="shape" scale="15.349128723144531" xChannelSelector="R" yChannelSelector="G" result="displacedImage" width="100%" height="100%" />
<feMerge result="effect1_texture_863_10116">
<feMergeNode in="displacedImage"/>
</feMerge>
</filter>
<filter id="filter2_g_863_10116" x="9.89714" y="-17.5314" width="76.2057" height="105.92" filterUnits="userSpaceOnUse" color-interpolation-filters="sRGB">
<feFlood flood-opacity="0" result="BackgroundImageFix"/>
<feBlend mode="normal" in="SourceGraphic" in2="BackgroundImageFix" result="shape"/>
<feTurbulence type="fractalNoise" baseFrequency="0.99900001287460327 0.99900001287460327" numOctaves="3" seed="6254" />
<feDisplacementMap in="shape" scale="44.205711364746094" xChannelSelector="R" yChannelSelector="G" result="displacedImage" width="100%" height="100%" />
<feMerge result="effect1_texture_863_10116">
<feMergeNode in="displacedImage"/>
</feMerge>
</filter>
</defs>
</svg>
